#!OML:ASF \\sashay\E\Suitcase\Project 1\Capture day 1\Session 1\Male1.ASF
:FULLY-SPECIFIED
:DEGREES
174
root -1.24656 17.7266 8.73246 10.948 4.54502 -0.189048
lowerback 13.1751 -3.42675 14.5066
upperback 7.77029 -2.76975 12.5103
thorax 1.04806 -1.19729 5.74067
lowerneck -7.08106 -10.1259 -6.63508
upperneck 33.1011 -12.291 -3.45131
head 12.3158 -6.5284 -1.67925
rclavicle 4.13472e-014 -6.36111e-014
rhumerus -8.60014 -11.9066 -63.2661
rradius 27.0025
rwrist -0.20909
rhand -37.7256 31.045
rfingers 7.12502
rthumb -10.7746 1.34138
lclavicle 4.13472e-014 -6.36111e-014
lhumerus -29.3557 -8.94873 96.7134
lradius 49.1711
lwrist 1.1758
lhand 0.503121 42.3388
lfingers 7.12502
lthumb 26.0722 70.5695
rfemur -15.6065 -3.05689 23.1795
rtibia 13.9089
rfoot -9.04678 -12.1586
rtoes 17.097
lfemur -16.2429 -2.27212 -16.104
ltibia 14.7342
lfoot -8.75339 1.23274
ltoes 0.691755
175
root -1.25345 17.7236 8.71598 11.0948 4.37382 -0.204735
lowerback 13.3342 -3.34743 14.4542
upperback 7.80355 -2.64282 12.4771
thorax 0.997757 -1.13745 5.72147
lowerneck -7.18096 -10.1205 -6.46796
upperneck 33.0649 -12.2777 -3.54138
head 12.2986 -6.51374 -1.73966
rclavicle 9.54166e-015 1.90833e-014
rhumerus -8.69028 -11.8034 -63.2883
rradius 27.7688
rwrist -1.1865
rhand -36.7268 30.0585
rfingers 7.12502
rthumb -9.81106 0.307104
lclavicle 9.54166e-015 1.90833e-014
lhumerus -29.3059 -8.95579 96.6517
lradius 49.1596
lwrist 1.19409
lhand 0.423849 42.0795
lfingers 7.12502
lthumb 25.9963 70.3213
rfemur -15.8338 -2.81564 23.2014
rtibia 13.8726
rfoot -8.94959 -12.2095
rtoes 17.2152
lfemur -16.5077 -2.27975 -16.0396
ltibia 14.8251
lfoot -8.675 1.41891
ltoes 1.04302
176
root -1.24436 17.7274 8.71192 11.1135 4.37518 0.0515446
lowerback 13.3746 -3.35737 14.4028
upperback 7.85087 -2.66089 12.3618
thorax 1.02159 -1.14234 5.62274
lowerneck -7.25011 -10.1418 -6.37992
upperneck 33.0888 -12.2998 -3.60323
head 12.31 -6.51916 -1.78369
rclavicle -2.22639e-014 -8.90555e-014
rhumerus -8.6309 -11.4 -63.2014
rradius 27.8453
rwrist -2.23997
rhand -35.4828 29.0088
rfingers 7.12502
rthumb -8.61072 -0.795654
lclavicle -2.22639e-014 -8.90555e-014
lhumerus -29.2635 -9.08654 96.6255
lradius 49.259
lwrist 1.08865
lhand 1.23538 42.3408
lfingers 7.12502
lthumb 26.7731 70.4661
rfemur -15.8534 -3.22824 22.9262
rtibia 13.8972
rfoot -8.88897 -11.8401
rtoes 17.0813
lfemur -16.5473 -2.32866 -16.3654
ltibia 14.9044
lfoot -8.67394 1.43137
ltoes 1.39843
177
root -1.25318 17.7232 8.6944 11.0204 4.27927 -0.212049
lowerback 13.7059 -3.30494 14.5023
upperback 7.97366 -2.52526 12.4556
thorax 0.984638 -1.07537 5.67435
lowerneck -7.51441 -10.175 -6.26814
upperneck 33.1563 -12.3089 -3.73883
head 12.3713 -6.52307 -1.87204
rclavicle 0 7.63333e-014
rhumerus -8.45179 -11.8514 -63.0959
rradius 28.0655
rwrist -2.07388
rhand -33.3276 28.2335
rfingers 7.12502
rthumb -6.53048 -1.64577
lclavicle 0 7.63333e-014
lhumerus -29.2696 -9.12142 96.6698
lradius 49.4415
lwrist 1.0115
lhand 1.39225 42.4379
lfingers 7.12502
lthumb 26.9232 70.5401
rfemur -15.8231 -2.89943 23.2108
rtibia 13.8603
rfoot -8.83425 -12.0135
rtoes 17.0779
lfemur -16.5878 -2.38952 -16.0156
ltibia 15.0173
lfoot -8.59315 1.64515
ltoes 1.69171
178
root -1.25108 17.7212 8.68046 10.9896 4.21998 -0.341641
lowerback 13.9736 -3.29024 14.6626
upperback 7.99678 -2.42701 12.4874
thorax 0.866251 -1.0268 5.62524
lowerneck -7.53035 -10.1918 -6.22332
upperneck 33.1869 -12.3041 -3.85347
head 12.3743 -6.52832 -1.9222
rclavicle -9.54166e-015 2.8625e-014
rhumerus -8.698 -11.4482 -62.8453
rradius 28.7274
rwrist -2.01009
rhand -31.5917 27.1267
rfingers 7.12502
rthumb -4.85453 -2.79768
lclavicle -9.54166e-015 2.8625e-014
lhumerus -29.2616 -9.05954 96.6696
lradius 49.4901
lwrist 0.84875
lhand 1.45502 42.3478
lfingers 7.12502
lthumb 26.9833 70.4408
rfemur -15.8093 -2.89823 23.3547
rtibia 13.7869
rfoot -8.73738 -11.9367
rtoes 16.9609
lfemur -16.6556 -2.24645 -15.8908
ltibia 15.1053
lfoot -8.55758 1.5859
ltoes 1.92367
179
root -1.25385 17.7211 8.67543 11.0605 4.12025 -0.321939
lowerback 14.0414 -3.24226 14.6145
upperback 7.99454 -2.35493 12.4795
thorax 0.827515 -0.994426 5.63458
lowerneck -7.36794 -10.1753 -6.20212
upperneck 33.1368 -12.2772 -3.90265
head 12.3143 -6.52114 -1.92562
rclavicle -2.8625e-014 8.26944e-014
rhumerus -8.53933 -11.0679 -62.7136
rradius 28.8566
rwrist -1.76699
rhand -30.8414 24.6636
rfingers 7.12502
rthumb -4.12994 -5.27616
lclavicle -2.8625e-014 8.26944e-014
lhumerus -29.4287 -9.37301 96.7106
lradius 49.5076
lwrist 1.04524
lhand 1.27917 42.4986
lfingers 7.12502
lthumb 26.815 70.6175
rfemur -15.8271 -2.72432 23.3181
rtibia 13.6433
rfoot -8.66007 -12.0161
rtoes 16.8894
lfemur -16.852 -2.25687 -15.9007
ltibia 15.3297
lfoot -8.6188 1.70281
ltoes 2.04002
180
root -1.25033 17.7203 8.6666 11.0336 4.09641 -0.322442
lowerback 14.1686 -3.27007 14.6863
upperback 8.11797 -2.37578 12.4222
thorax 0.892783 -0.996547 5.54086
lowerneck -7.57527 -10.1355 -6.03384
upperneck 33.0978 -12.2175 -3.96432
head 12.3195 -6.48243 -1.97716
rclavicle -5.08889e-014 -9.54166e-015
rhumerus -8.3362 -11.444 -62.5994
rradius 29.2478
rwrist -1.14995
rhand -30.6765 24.3525
rfingers 7.12502
rthumb -3.97079 -5.59025
lclavicle -5.08889e-014 -9.54166e-015
lhumerus -29.3408 -9.33219 96.5682
lradius 49.6407
lwrist 1.13429
lhand 1.26914 42.903
lfingers 7.12502
lthumb 26.8054 71.0234
rfemur -15.811 -2.96262 23.3344
rtibia 13.6285
rfoot -8.60564 -11.764
rtoes 16.7879
lfemur -16.8777 -2.15605 -15.9374
ltibia 15.4024
lfoot -8.6549 1.61893
ltoes 2.0522
181
root -1.24593 17.7199 8.65356 11.0744 4.026 -0.43342
lowerback 14.2881 -3.25862 14.8747
upperback 8.18521 -2.32289 12.4176
thorax 0.902018 -0.963135 5.43368
lowerneck -7.6249 -10.1113 -5.98186
upperneck 33.0217 -12.1716 -4.01037
head 12.2895 -6.46203 -1.9948
rclavicle -1.90833e-014 -5.08889e-014
rhumerus -8.04267 -11.4245 -62.3535
rradius 28.8576
rwrist -0.920739
rhand -30.4132 24.5077
rfingers 7.12502
rthumb -3.71651 -5.43964
lclavicle -1.90833e-014 -5.08889e-014
lhumerus -29.2587 -9.4234 96.5883
lradius 49.5535
lwrist 1.24578
lhand 1.07394 42.7374
lfingers 7.12502
lthumb 26.6186 70.8863
rfemur -15.9362 -3.02005 23.4589
rtibia 13.6744
rfoot -8.56809 -11.6182
rtoes 16.8614
lfemur -16.9779 -2.19099 -15.8174
ltibia 15.4331
lfoot -8.63581 1.73562
ltoes 1.99196
182
root -1.242 17.7212 8.64651 11.082 4.15254 -0.197775
lowerback 14.3506 -3.32953 14.7181
upperback 8.21166 -2.42141 12.3888
thorax 0.897113 -1.01514 5.50264
lowerneck -7.61623 -10.0641 -5.8872
upperneck 32.9506 -12.0674 -4.18403
head 12.2358 -6.42754 -2.05381
rclavicle 6.36111e-014 1.01778e-013
rhumerus -7.58509 -12.2217 -62.087
rradius 28.4731
rwrist -0.267718
rhand -29.9493 23.5447
rfingers 7.12502
rthumb -3.26854 -6.40995
lclavicle 6.36111e-014 1.01778e-013
lhumerus -29.2958 -9.22531 96.5779
lradius 49.672
lwrist 1.25698
lhand 1.78212 43.0179
lfingers 7.12502
lthumb 27.2962 71.0621
rfemur -15.9911 -3.40689 23.2248
rtibia 13.8014
rfoot -8.63322 -11.3934
rtoes 16.9916
lfemur -16.9934 -2.20149 -16.1105
ltibia 15.4165
lfoot -8.65393 1.5617
ltoes 1.98488
183
root -1.24546 17.7191 8.63001 11.1351 3.91465 -0.172197
lowerback 14.6044 -3.24533 14.5194
upperback 8.2675 -2.28835 12.432
thorax 0.828837 -0.960559 5.6499
lowerneck -7.63334 -10.0312 -5.83818
upperneck 32.8555 -11.968 -4.37392
head 12.1811 -6.4021 -2.11304
rclavicle 0 -2.8625e-014
rhumerus -7.3905 -12.406 -61.6994
rradius 28.7159
rwrist -0.77849
rhand -28.6516 22.221
rfingers 7.12502
rthumb -2.0152 -7.74926
lclavicle 0 -2.8625e-014
lhumerus -29.1934 -9.10383 96.622
lradius 49.6088
lwrist 1.3354
lhand 0.871503 42.8285
lfingers 7.12502
lthumb 26.4249 71.0066
rfemur -16.1889 -3.10202 23.1702
rtibia 13.9072
rfoot -8.6222 -11.4618
rtoes 17.192
lfemur -17.0944 -2.10885 -16.1355
ltibia 15.4207
lfoot -8.59954 1.68488
ltoes 2.02905
184
root -1.23984 17.7196 8.6183 11.2146 3.67031 0.032481
lowerback 14.7469 -3.18803 14.2863
upperback 8.31386 -2.2213 12.3734
thorax 0.803147 -0.934671 5.70427
lowerneck -7.57326 -9.98808 -5.8217
upperneck 32.7251 -11.8785 -4.47767
head 12.1059 -6.37519 -2.13042
rclavicle -9.54166e-015 -9.54166e-015
rhumerus -6.94382 -12.6335 -61.3074
rradius 28.5069
rwrist -1.48884
rhand -26.6923 20.3396
rfingers 7.12502
rthumb -0.122948 -9.64011
lclavicle -9.54166e-015 -9.54166e-015
lhumerus -29.2162 -8.86838 96.5471
lradius 49.6966
lwrist 0.948794
lhand 1.61843 42.7238
lfingers 7.12502
lthumb 27.1396 70.7925
rfemur -16.4036 -3.22403 22.9232
rtibia 14.0556
rfoot -8.57151 -11.137
rtoes 17.2161
lfemur -17.1552 -1.9783 -16.4267
ltibia 15.3964
lfoot -8.56976 1.74682
ltoes 2.18126
